<svg width="220" height="60" viewBox="0 0 220 60" fill="none" xmlns="http://www.w3.org/2000/svg">
  <!-- Creative geometric design with better contrast -->
  <polygon points="30,10 50,10 45,30 25,30" fill="url(#gradient1)"/>
  <polygon points="25,30 45,30 40,50 20,50" fill="url(#gradient2)"/>
  
  <!-- Creative document icon with better contrast -->
  <rect x="15" y="20" width="20" height="25" rx="2" fill="#1E40AF" opacity="0.1"/>
  <rect x="16" y="21" width="18" height="23" rx="1" fill="white" opacity="0.9"/>
  <path d="M20 25h10M20 30h12M20 35h8M20 40h15" stroke="#1E40AF" stroke-width="1.5" stroke-linecap="round"/>
  
  <!-- Creative typography with better contrast -->
  <text x="70" y="25" font-family="Arial, sans-serif" font-size="20" font-weight="800" fill="#1E293B">Resume</text>
  <text x="70" y="45" font-family="Arial, sans-serif" font-size="20" font-weight="800" fill="#1E40AF">Studio</text>
  
  <!-- Creative accent with better contrast -->
  <circle cx="200" cy="15" r="3" fill="#1E40AF"/>
  <circle cx="195" cy="25" r="2" fill="#7C3AED"/>
  <circle cx="205" cy="35" r="2.5" fill="#0891B2"/>
  
  <defs>
    <linearGradient id="gradient1" x1="0%" y1="0%" x2="100%" y2="100%">
      <stop offset="0%" style="stop-color:#1E40AF;stop-opacity:1" />
      <stop offset="100%" style="stop-color:#7C3AED;stop-opacity:1" />
    </linearGradient>
    <linearGradient id="gradient2" x1="0%" y1="0%" x2="100%" y2="100%">
      <stop offset="0%" style="stop-color:#7C3AED;stop-opacity:1" />
      <stop offset="100%" style="stop-color:#0891B2;stop-opacity:1" />
    </linearGradient>
  </defs>
</svg>
